<svg viewBox="0 0 200 200" xmlns="http://www.w3.org/2000/svg" fill-rule="evenodd" clip-rule="evenodd" stroke-linejoin="round" stroke-miterlimit="2"><path d="M156.698 110.012c0-15.596-12.662-28.258-28.258-28.258H71.924c-15.597 0-28.259 12.662-28.259 28.258v57.73C43.665 183.34 56.327 196 71.924 196h56.516c15.596 0 28.258-12.661 28.258-28.258v-57.73zm-72.332 1.75v59.813h23.946v2.986a3.984 3.984 0 003.982 3.982h18.427a3.984 3.984 0 003.982-3.982v-7.963a3.984 3.984 0 00-3.982-3.982h-18.427a3.984 3.984 0 00-3.982 3.982v2.986H86.358v-19.15h21.954v2.985a3.984 3.984 0 003.982 3.982h18.427a3.984 3.984 0 003.982-3.982v-7.963a3.984 3.984 0 00-3.982-3.982h-18.427a3.984 3.984 0 00-3.982 3.982v2.986H86.358v-19.15h21.954v2.985a3.984 3.984 0 003.982 3.983h18.427a3.984 3.984 0 003.982-3.983v-7.963a3.984 3.984 0 00-3.982-3.982h-18.427a3.984 3.984 0 00-3.982 3.982v2.986H86.358v-15.537h8.217a3.984 3.984 0 003.982-3.982v-7.964a3.984 3.984 0 00-3.982-3.982H76.148a3.984 3.984 0 00-3.981 3.982v7.964a3.984 3.984 0 003.981 3.982h8.218zm-78.03 43.24l2.92-10.898a4.396 4.396 0 015.381-3.108l2.924.784a4.395 4.395 0 013.107 5.381l-2.92 10.9.622.166a5.706 5.706 0 006.985-4.032l15.554-58.05a5.705 5.705 0 00-4.032-6.985L24.219 85.77a5.706 5.706 0 00-6.985 4.032L1.68 147.851a5.706 5.706 0 004.033 6.985l.622.167zm187.692 0l-2.92-10.898a4.396 4.396 0 00-5.382-3.108l-2.923.784a4.395 4.395 0 00-3.108 5.381l2.92 10.9-.622.166a5.706 5.706 0 01-6.984-4.032l-15.554-58.05a5.705 5.705 0 014.032-6.985l12.658-3.391a5.706 5.706 0 016.984 4.032l15.554 58.05a5.706 5.706 0 01-4.032 6.985l-.623.167zm-48.51-117.736V19.658c-3.73-.87-6.514-4.222-6.514-8.218 0-4.658 3.782-8.44 8.44-8.44 4.657 0 8.439 3.782 8.439 8.44 0 3.996-2.783 7.347-6.515 8.218v17.934a6.42 6.42 0 014.39 6.088v12.827a6.417 6.417 0 01-6.413 6.414h-3.496v.505c0 7.079-5.748 12.827-12.827 12.827h-61.68c-7.08 0-12.827-5.748-12.827-12.827v-.505h-3.496a6.417 6.417 0 01-6.414-6.414V43.68a6.42 6.42 0 014.39-6.088V19.658c-3.731-.87-6.514-4.222-6.514-8.218 0-4.658 3.781-8.44 8.44-8.44 4.657 0 8.439 3.782 8.439 8.44 0 3.996-2.784 7.347-6.515 8.218v17.608h1.68c.266-6.847 5.907-12.323 12.817-12.323h61.68c6.91 0 12.551 5.476 12.817 12.323h1.68zm-27.613 1.18c4.658 0 8.44 3.782 8.44 8.44 0 4.658-3.782 8.44-8.44 8.44-4.658 0-8.44-3.782-8.44-8.44 0-4.658 3.782-8.44 8.44-8.44zm-35.446 0c4.658 0 8.44 3.782 8.44 8.44 0 4.658-3.782 8.44-8.44 8.44-4.658 0-8.44-3.782-8.44-8.44 0-4.658 3.782-8.44 8.44-8.44z" fill="#2eb6ff"/></svg>