<?xml version="1.0" encoding="UTF-8" standalone="no"?>
<svg
   version="1.1"
   viewBox="0 0 630 630"
   id="svg1"
   sodipodi:docname="bwicon.svg"
   inkscape:version="1.3.1 (91b66b0, 2023-11-16)"
   inkscape:export-filename="favicon.png"
   inkscape:export-xdpi="19.504763"
   inkscape:export-ydpi="19.504763"
   xmlns:inkscape="http://www.inkscape.org/namespaces/inkscape"
   xmlns:sodipodi="http://sodipodi.sourceforge.net/DTD/sodipodi-0.dtd"
   xmlns="http://www.w3.org/2000/svg"
   xmlns:svg="http://www.w3.org/2000/svg">
  <defs
     id="defs1">
    <inkscape:path-effect
       effect="fill_between_many"
       method="originald"
       linkedpaths="#g11,0,1|"
       id="path-effect3" />
    <inkscape:path-effect
       effect="fill_between_many"
       method="originald"
       linkedpaths="#g10,0,1|"
       id="path-effect4" />
  </defs>
  <sodipodi:namedview
     id="namedview1"
     pagecolor="#ffffff"
     bordercolor="#666666"
     borderopacity="1.0"
     inkscape:showpageshadow="2"
     inkscape:pageopacity="0.0"
     inkscape:pagecheckerboard="0"
     inkscape:deskcolor="#d1d1d1"
     inkscape:zoom="0.78374771"
     inkscape:cx="200.31956"
     inkscape:cy="345.13657"
     inkscape:window-width="1536"
     inkscape:window-height="818"
     inkscape:window-x="0"
     inkscape:window-y="25"
     inkscape:window-maximized="0"
     inkscape:current-layer="svg1"
     showguides="true">
    <sodipodi:guide
       position="240.56468,49.637704"
       orientation="0,-1"
       id="guide3"
       inkscape:locked="false" />
    <sodipodi:guide
       position="298.70115,341.32238"
       orientation="0,-1"
       id="guide4"
       inkscape:locked="false" />
    <sodipodi:guide
       position="163.38351,471.62825"
       orientation="1,0"
       id="guide5"
       inkscape:locked="false" />
    <sodipodi:guide
       position="581.36465,507.71295"
       orientation="1,0"
       id="guide6"
       inkscape:locked="false" />
  </sodipodi:namedview>
  <path
     id="background"
     style="stroke-width:0.005;stroke-dasharray:none;fill:#333333"
     d="M 0 0 L 0 630 L 630 630 L 630 0 L 0 0 z M 247.83594 27.279297 C 257.72753 27.893646 270.7024 39.775992 273.88281 32.230469 C 277.13717 29.543276 284.41628 31.857925 289.20898 31.083984 C 297.10973 28.756149 293.42112 37.682214 294.22461 42.246094 L 294.22461 140.58398 C 294.92834 162.58308 287.26912 188.8105 263.64453 196.76172 C 241.75967 204.3758 217.62334 201.73702 195.58594 196.10742 L 195.58594 174.87109 C 216.16814 180.77885 240.4061 188.20522 260.62305 177.13867 C 274.18178 168.52972 272.86351 151.63206 272.81055 137.81836 C 253.28145 155.39157 219.11671 159.30423 199.0918 140.55664 C 181.01472 122.21646 179.64702 93.941672 184.82227 70.294922 C 190.8516 44.792582 216.58187 25.026337 243.82227 27.794922 C 245.07191 27.333276 246.42285 27.191532 247.83594 27.279297 z M 388.30273 27.414062 C 391.69794 27.389381 395.09725 27.637447 398.45703 28.169922 C 421.61773 29.486269 440.1299 49.01702 441.99219 71.0625 C 443.21054 78.994979 442.7904 87.025193 442.86914 95.013672 L 349.12695 95.013672 C 347.68018 114.93094 361.56056 135.5836 382.72461 138.33008 C 402.95567 142.36533 423.80518 134.76263 440.36328 124.43555 L 440.36328 147.10938 C 411.3828 159.85285 373.6063 163.58346 347.41602 142.92383 C 324.7558 123.48732 323.29577 89.529186 332.74023 63.4375 C 340.98002 41.090243 364.53636 27.586847 388.30273 27.414062 z M 539.29492 27.615234 C 551.79612 27.382653 563.96112 31.360873 572.20703 41.259766 C 585.80795 59.366148 580.69034 82.706663 581.7168 103.63086 L 581.7168 154.63086 L 560.30273 154.63086 C 559.9352 126.50144 561.12777 98.313052 559.51758 70.228516 C 560.49716 53.083892 542.08871 44.148656 526.73242 48.044922 C 516.49647 51.754377 497.22419 55.151283 496.74414 67.537109 L 496.74414 154.63086 L 475.33203 154.63086 L 475.33203 31.083984 L 496.74414 31.083984 C 496.96968 38.450434 494.37994 50.733769 504.35938 39.242188 C 513.956 32.292151 526.79373 27.847818 539.29492 27.615234 z M 387.01367 44.578125 C 370.26514 44.829718 353.91186 55.411525 350.35742 72.083984 C 344.96251 81.941835 356.27614 78.579853 362.38867 79.087891 L 422.02539 79.087891 C 423.14228 62.972685 412.11575 45.556593 394.17969 45.115234 C 391.80704 44.717133 389.40633 44.542183 387.01367 44.578125 z M 241.31641 46.363281 C 230.49085 46.679711 220.23942 50.317022 213.26562 59.330078 C 201.70129 75.919565 202.3285 98.377992 208.58398 116.7832 C 215.76866 136.12518 241.47818 136.48018 257.83594 129.1543 C 263.16706 126.95162 268.21714 124.10392 272.81055 120.67383 L 272.81055 53.316406 C 263.54078 49.050878 252.14196 46.046854 241.31641 46.363281 z M 378.67578 182.74219 C 402.27828 187.14494 425.88186 191.54646 449.48438 195.94922 L 449.48438 575.80664 L 375.45117 575.80664 L 375.45117 510.86328 L 291.88477 510.86328 C 278.78281 536.46948 265.68008 562.07546 252.57812 587.68164 C 230.05141 578.8778 207.52478 570.07339 184.99805 561.26953 C 249.55719 435.09407 314.11663 308.91766 378.67578 182.74219 z M 512.68555 198.61523 L 581.89648 198.61523 L 581.89648 575.80664 L 512.68555 575.80664 L 512.68555 198.61523 z M 375.45117 347.54102 C 358.63099 380.41404 341.81042 413.28712 324.99023 446.16016 L 375.45117 446.16016 L 375.45117 347.54102 z " />
</svg>
