<svg viewBox="0 0 630 630" xmlns="http://www.w3.org/2000/svg">
    <path stroke="#fff" style="stroke-width:8" d="M0 0h630v630H0z"/>
    <path style="fill:#fff;stroke:none;color:#fff;-inkscape-stroke:none" d="M289.261 275.098 158.455 567.613l45.642 20.411c8.85-19.788 17.699-39.575 26.547-59.363h56.44v50.186h50V285.304l-47.823-10.206zm-2.177 127.352v76.21h-34.08l34.08-76.21z" transform="matrix(1.48064 0 0 1.29404 -49.617 -173.246)"/>
    <path d="M294.225 140.583c.704 22-6.956 48.227-30.58 56.179-21.885 7.614-46.022 4.975-68.06-.655v-21.236c20.583 5.908 44.822 13.334 65.039 2.267 13.559-8.609 12.24-25.506 12.188-39.32-19.53 17.574-53.696 21.485-73.72 2.738-18.078-18.34-19.446-46.615-14.27-70.262 6.029-25.502 31.76-45.268 59.001-42.5 9.998-3.693 26.426 13.059 30.06 4.435 3.255-2.687 10.533-.37 15.325-1.144 7.901-2.328 4.214 6.597 5.017 11.16v98.338zm-21.413-19.908V53.316c-18.54-8.53-45.599-12.012-59.546 6.014-11.565 16.59-10.937 39.047-4.682 57.453 7.185 19.342 32.895 19.698 49.253 12.372a69.225 69.225 0 0 0 14.975-8.48zm170.057-25.66h-93.742c-1.447 19.917 12.433 40.568 33.597 43.315 20.232 4.035 41.08-3.568 57.639-13.895v22.674c-28.98 12.744-66.757 16.475-92.948-4.185-22.66-19.436-24.119-53.395-14.674-79.487 9.417-25.54 38.838-39.527 65.716-35.268 23.161 1.317 41.674 20.847 43.536 42.893 1.218 7.932.797 15.964.876 23.952zm-20.845-15.928c1.117-16.115-9.908-33.53-27.844-33.972-18.981-3.185-39.76 7.915-43.822 26.97-5.395 9.858 5.918 6.494 12.03 7.002h59.636zm159.693 75.543h-21.414c-.368-28.13.825-56.317-.785-84.401.98-17.145-17.43-26.08-32.786-22.184-10.236 3.71-29.507 7.106-29.987 19.492v87.093H475.33V31.085h21.414c.225 7.366-2.366 19.649 7.614 8.157 19.193-13.9 51.355-17.78 67.847 2.019 13.601 18.106 8.484 41.446 9.51 62.37v51z" style="fill:#fff;font-size:229.871px;line-height:1.25;text-align:end;text-anchor:end;stroke:none;stroke-width:.00598623" aria-label="gen"/>
    <path style="color:#fff;fill:#fff;stroke:none;-inkscape-stroke:none" d="M512.686 198.615v377.192h69.21V198.615h-69.21z"/>
</svg>
